<svg xmlns="http://www.w3.org/2000/svg" width="360" height="240" viewBox="0 0 360 240" fill="none" stroke="#33343a" stroke-linecap="round" stroke-linejoin="round" stroke-width="2" aria-hidden="true">
  <symbol id="info-api" viewBox="0 0 24 24" fill="none" stroke="#33343a" stroke-linecap="round" stroke-linejoin="round" stroke-width="2">
    <path d="M8 8 4 12l4 4"></path>
    <path d="m16 8 4 4-4 4"></path>
    <path d="m13.5 5-3 14"></path>
    <path d="M7 20h10"></path>
  </symbol>
  <symbol id="info-architecture" viewBox="0 0 24 24" fill="none" stroke="#33343a" stroke-linecap="round" stroke-linejoin="round" stroke-width="2">
    <rect x="4" y="4" width="6" height="6" rx="1.3"></rect>
    <rect x="14" y="4" width="6" height="6" rx="1.3"></rect>
    <rect x="9" y="14" width="6" height="6" rx="1.3"></rect>
    <path d="M10 7h4M7 10v2.5a1.5 1.5 0 0 0 1.5 1.5H12M17 10v2.5a1.5 1.5 0 0 1-1.5 1.5H12"></path>
  </symbol>
  <symbol id="info-asset-tracking" viewBox="0 0 24 24" fill="none" stroke="#33343a" stroke-linecap="round" stroke-linejoin="round" stroke-width="2">
    <path d="M6 18.5 10 21l8-4V8.5L14 6l-8 4v8.5Z"></path>
    <path d="M6 10.2 10 13l8-4.2M10 13v8"></path>
    <path d="M17.5 3.5a3 3 0 0 0-3 3c0 2.4 3 5 3 5s3-2.6 3-5a3 3 0 0 0-3-3Z"></path>
    <circle cx="17.5" cy="6.5" r=".6"></circle>
  </symbol>
  <symbol id="info-blueprint" viewBox="0 0 24 24" fill="none" stroke="#33343a" stroke-linecap="round" stroke-linejoin="round" stroke-width="2">
    <rect x="4" y="4" width="16" height="16" rx="2"></rect>
    <path d="M8 8h8M8 12h4M8 16h6"></path>
    <path d="M16 12h2v4h-4v-2"></path>
  </symbol>
  <symbol id="info-bolt" viewBox="0 0 24 24" fill="none" stroke="#33343a" stroke-linecap="round" stroke-linejoin="round" stroke-width="2">
    <path d="M13 2 5 14h6l-1 8 8-12h-6l1-8Z"></path>
  </symbol>
  <symbol id="info-building" viewBox="0 0 24 24" fill="none" stroke="#33343a" stroke-linecap="round" stroke-linejoin="round" stroke-width="2">
    <path d="M4 21V5l8-3 8 3v16"></path>
    <path d="M9 21v-6h6v6M8 8h.01M12 8h.01M16 8h.01M8 12h.01M16 12h.01"></path>
  </symbol>
  <symbol id="info-card" viewBox="0 0 24 24" fill="none" stroke="#33343a" stroke-linecap="round" stroke-linejoin="round" stroke-width="2">
    <path d="M7 3h10a2 2 0 0 1 2 2v14a2 2 0 0 1-2 2H7a2 2 0 0 1-2-2V5a2 2 0 0 1 2-2Z"></path>
    <path d="M8 8h4M8 12h8M8 16h5"></path>
    <path d="M16 6v4h-4"></path>
  </symbol>
  <symbol id="info-cloud" viewBox="0 0 24 24" fill="none" stroke="#33343a" stroke-linecap="round" stroke-linejoin="round" stroke-width="2">
    <path d="M17.5 18H8a5 5 0 1 1 .7-9.9A6.5 6.5 0 0 1 21 11.4 3.8 3.8 0 0 1 17.5 18Z"></path>
    <path d="M8 21h8M12 18v3"></path>
    <path d="M7 12h.01M12 12h.01M17 12h.01"></path>
  </symbol>
  <symbol id="info-compass" viewBox="0 0 24 24" fill="none" stroke="#33343a" stroke-linecap="round" stroke-linejoin="round" stroke-width="2">
    <circle cx="12" cy="12" r="9"></circle>
    <path d="m15.5 8.5-2 5-5 2 2-5 5-2Z"></path>
  </symbol>
  <symbol id="info-connectivity" viewBox="0 0 24 24" fill="none" stroke="#33343a" stroke-linecap="round" stroke-linejoin="round" stroke-width="2">
    <path d="M12 19v-5"></path>
    <circle cx="12" cy="12" r="1.3"></circle>
    <path d="M8.8 8.8a4.5 4.5 0 0 0 0 6.4M15.2 8.8a4.5 4.5 0 0 1 0 6.4"></path>
    <path d="M5.7 5.7a9 9 0 0 0 0 12.6M18.3 5.7a9 9 0 0 1 0 12.6"></path>
    <path d="M9 21h6"></path>
  </symbol>
  <symbol id="info-consultation" viewBox="0 0 24 24" fill="none" stroke="#33343a" stroke-linecap="round" stroke-linejoin="round" stroke-width="2">
    <path d="M4 5h11a3 3 0 0 1 3 3v5a3 3 0 0 1-3 3H9l-5 4V5Z"></path>
    <path d="m15 4-2 5h4l-3 5"></path>
    <path d="M8 9h3M8 13h2"></path>
  </symbol>
  <symbol id="info-delivery" viewBox="0 0 24 24" fill="none" stroke="#33343a" stroke-linecap="round" stroke-linejoin="round" stroke-width="2">
    <path d="M3 7h11v10H3V7Z"></path>
    <path d="M14 10h4l3 3v4h-7v-7Z"></path>
    <circle cx="7" cy="18" r="2"></circle>
    <circle cx="17" cy="18" r="2"></circle>
  </symbol>
  <symbol id="info-discovery" viewBox="0 0 24 24" fill="none" stroke="#33343a" stroke-linecap="round" stroke-linejoin="round" stroke-width="2">
    <circle cx="11" cy="11" r="6"></circle>
    <path d="m16 16 4 4"></path>
    <path d="m13.5 8.5-1.4 3.6-3.6 1.4 1.4-3.6 3.6-1.4Z"></path>
  </symbol>
  <symbol id="info-docs" viewBox="0 0 24 24" fill="none" stroke="#33343a" stroke-linecap="round" stroke-linejoin="round" stroke-width="2">
    <path d="M7 3h7l4 4v14H7V3Z"></path>
    <path d="M14 3v5h5M10 12h6M10 16h6"></path>
  </symbol>
  <symbol id="info-faq" viewBox="0 0 24 24" fill="none" stroke="#33343a" stroke-linecap="round" stroke-linejoin="round" stroke-width="2">
    <path d="M5 5h14v10H8l-3 4V5Z"></path>
    <path d="M12 11v-.4c0-1.4 2-1.5 2-3.1 0-1.1-.9-2-2.1-2-1 0-1.8.5-2.2 1.3M12 14h.01"></path>
  </symbol>
  <symbol id="info-feasibility" viewBox="0 0 24 24" fill="none" stroke="#33343a" stroke-linecap="round" stroke-linejoin="round" stroke-width="2">
    <path d="M12 3 19 6v6c0 4.4-2.8 7.5-7 9-4.2-1.5-7-4.6-7-9V6l7-3Z"></path>
    <path d="M9 12h2l1.2 2.5L15 9"></path>
    <path d="M8 7.5h8"></path>
  </symbol>
  <symbol id="info-globe" viewBox="0 0 24 24" fill="none" stroke="#33343a" stroke-linecap="round" stroke-linejoin="round" stroke-width="2">
    <circle cx="12" cy="12" r="9"></circle>
    <path d="M3 12h18M12 3c2.5 2.5 3.7 5.5 3.7 9S14.5 18.5 12 21c-2.5-2.5-3.7-5.5-3.7-9S9.5 5.5 12 3Z"></path>
  </symbol>
  <symbol id="info-healthcare" viewBox="0 0 24 24" fill="none" stroke="#33343a" stroke-linecap="round" stroke-linejoin="round" stroke-width="2">
    <path d="M12 21s-7-4.4-7-10a4.2 4.2 0 0 1 7-3.1A4.2 4.2 0 0 1 19 11c0 5.6-7 10-7 10Z"></path>
    <path d="M12 8v6M9 11h6"></path>
  </symbol>
  <symbol id="info-infrastructure" viewBox="0 0 24 24" fill="none" stroke="#33343a" stroke-linecap="round" stroke-linejoin="round" stroke-width="2">
    <path d="M12 3 5 21h14L12 3Z"></path>
    <path d="M9 11h6M7.5 15h9M10 7h4"></path>
    <path d="M5 21h14"></path>
  </symbol>
  <symbol id="info-layers" viewBox="0 0 24 24" fill="none" stroke="#33343a" stroke-linecap="round" stroke-linejoin="round" stroke-width="2">
    <path d="m12 3 9 5-9 5-9-5 9-5Z"></path>
    <path d="m3 12 9 5 9-5M3 16l9 5 9-5"></path>
  </symbol>
  <symbol id="info-mail" viewBox="0 0 24 24" fill="none" stroke="#33343a" stroke-linecap="round" stroke-linejoin="round" stroke-width="2">
    <rect x="3" y="5" width="18" height="14" rx="2"></rect>
    <path d="m4 7 8 6 8-6"></path>
    <path d="M7 17h4"></path>
  </symbol>
  <symbol id="info-monitor" viewBox="0 0 24 24" fill="none" stroke="#33343a" stroke-linecap="round" stroke-linejoin="round" stroke-width="2">
    <rect x="3" y="4" width="18" height="13" rx="2"></rect>
    <path d="M8 21h8M12 17v4"></path>
    <path d="M7 12h3l1.5-3 2 6 1.5-3h2"></path>
  </symbol>
  <symbol id="info-package" viewBox="0 0 24 24" fill="none" stroke="#33343a" stroke-linecap="round" stroke-linejoin="round" stroke-width="2">
    <rect x="5" y="5" width="14" height="14" rx="2"></rect>
    <rect x="9" y="9" width="6" height="6" rx="1"></rect>
    <path d="M9 2v3M15 2v3M9 19v3M15 19v3M2 9h3M2 15h3M19 9h3M19 15h3"></path>
  </symbol>
  <symbol id="info-partner-network" viewBox="0 0 24 24" fill="none" stroke="#33343a" stroke-linecap="round" stroke-linejoin="round" stroke-width="2">
    <circle cx="12" cy="12" r="3"></circle>
    <circle cx="5" cy="6" r="2"></circle>
    <circle cx="19" cy="6" r="2"></circle>
    <circle cx="5" cy="18" r="2"></circle>
    <circle cx="19" cy="18" r="2"></circle>
    <path d="M7 7.4 9.8 10M17 7.4 14.2 10M7 16.6 9.8 14M17 16.6 14.2 14"></path>
  </symbol>
  <symbol id="info-radio" viewBox="0 0 24 24" fill="none" stroke="#33343a" stroke-linecap="round" stroke-linejoin="round" stroke-width="2">
    <path d="M12 19v-5"></path>
    <circle cx="12" cy="12" r="1.3"></circle>
    <path d="M8.5 8.5a5 5 0 0 0 0 7M15.5 8.5a5 5 0 0 1 0 7"></path>
    <path d="M5 5a10 10 0 0 0 0 14M19 5a10 10 0 0 1 0 14"></path>
  </symbol>
  <symbol id="info-route" viewBox="0 0 24 24" fill="none" stroke="#33343a" stroke-linecap="round" stroke-linejoin="round" stroke-width="2">
    <rect x="3" y="4" width="5" height="5" rx="1"></rect>
    <rect x="16" y="15" width="5" height="5" rx="1"></rect>
    <path d="M8 6.5h3.5a4.5 4.5 0 0 1 0 9H16"></path>
    <path d="m13.5 13 2.5 2.5-2.5 2.5"></path>
  </symbol>
  <symbol id="info-sdk" viewBox="0 0 24 24" fill="none" stroke="#33343a" stroke-linecap="round" stroke-linejoin="round" stroke-width="2">
    <path d="m12 3 8 4.5v9L12 21l-8-4.5v-9L12 3Z"></path>
    <path d="m4.5 8 7.5 4 7.5-4M12 12v8"></path>
    <path d="M8 6.2 16 10.5"></path>
    <path d="M8.5 15.5h7"></path>
  </symbol>
  <symbol id="info-shield-check" viewBox="0 0 24 24" fill="none" stroke="#33343a" stroke-linecap="round" stroke-linejoin="round" stroke-width="2">
    <path d="M12 3 19 6v6c0 4.4-2.8 7.5-7 9-4.2-1.5-7-4.6-7-9V6l7-3Z"></path>
    <path d="m9 12 2 2 4-4"></path>
  </symbol>
  <symbol id="info-speed-path" viewBox="0 0 24 24" fill="none" stroke="#33343a" stroke-linecap="round" stroke-linejoin="round" stroke-width="2">
    <path d="M4 17a8 8 0 0 1 16 0"></path>
    <path d="m12 17 4-5"></path>
    <path d="M6 20h12"></path>
  </symbol>
  <symbol id="info-user" viewBox="0 0 24 24" fill="none" stroke="#33343a" stroke-linecap="round" stroke-linejoin="round" stroke-width="2">
    <circle cx="12" cy="8" r="4"></circle>
    <path d="M4 21a8 8 0 0 1 16 0"></path>
  </symbol>
  <symbol id="info-utilities" viewBox="0 0 24 24" fill="none" stroke="#33343a" stroke-linecap="round" stroke-linejoin="round" stroke-width="2">
    <rect x="5" y="4" width="14" height="16" rx="2"></rect>
    <path d="M8 8h8M9 13a3 3 0 0 1 6 0"></path>
    <path d="m12 13 2-2M9 17h6"></path>
  </symbol>
  <g>
    <rect x="1" y="1" width="358" height="238" rx="8" fill="#f7f7f8" stroke="#d8dae2"></rect>
    <use href="#info-package" x="24" y="24" width="32" height="32"></use>
    <use href="#info-card" x="84" y="24" width="32" height="32"></use>
    <use href="#info-connectivity" x="144" y="24" width="32" height="32"></use>
    <use href="#info-monitor" x="204" y="24" width="32" height="32"></use>
    <use href="#info-cloud" x="264" y="24" width="32" height="32"></use>
    <use href="#info-delivery" x="24" y="84" width="32" height="32"></use>
    <use href="#info-feasibility" x="84" y="84" width="32" height="32"></use>
    <use href="#info-discovery" x="144" y="84" width="32" height="32"></use>
    <use href="#info-consultation" x="204" y="84" width="32" height="32"></use>
    <use href="#info-partner-network" x="264" y="84" width="32" height="32"></use>
    <use href="#info-asset-tracking" x="24" y="144" width="32" height="32"></use>
    <use href="#info-healthcare" x="84" y="144" width="32" height="32"></use>
    <use href="#info-utilities" x="144" y="144" width="32" height="32"></use>
    <use href="#info-infrastructure" x="204" y="144" width="32" height="32"></use>
    <use href="#info-blueprint" x="264" y="144" width="32" height="32"></use>
  </g>
</svg>
